<svg width="40" height="40" viewBox="0 0 40 40" fill="none" xmlns="http://www.w3.org/2000/svg">
<path d="M20 25C22.7614 25 25 22.7614 25 20C25 17.2386 22.7614 15 20 15C17.2386 15 15 17.2386 15 20C15 22.7614 17.2386 25 20 25Z" stroke="#292D32" stroke-width="2" stroke-miterlimit="10" stroke-linecap="round" stroke-linejoin="round"/>
<path d="M3.33203 21.4667V18.5334C3.33203 16.8001 4.7487 15.3667 6.4987 15.3667C9.51536 15.3667 10.7487 13.2334 9.23203 10.6167C8.36536 9.11672 8.88203 7.16672 10.3987 6.30006L13.282 4.65006C14.5987 3.86672 16.2987 4.33339 17.082 5.65006L17.2654 5.96672C18.7654 8.58339 21.232 8.58339 22.7487 5.96672L22.932 5.65006C23.7154 4.33339 25.4154 3.86672 26.732 4.65006L29.6154 6.30006C31.132 7.16672 31.6487 9.11672 30.782 10.6167C29.2654 13.2334 30.4987 15.3667 33.5154 15.3667C35.2487 15.3667 36.682 16.7834 36.682 18.5334V21.4667C36.682 23.2001 35.2654 24.6334 33.5154 24.6334C30.4987 24.6334 29.2654 26.7667 30.782 29.3834C31.6487 30.9001 31.132 32.8334 29.6154 33.7001L26.732 35.3501C25.4154 36.1334 23.7154 35.6667 22.932 34.3501L22.7487 34.0334C21.2487 31.4167 18.782 31.4167 17.2654 34.0334L17.082 34.3501C16.2987 35.6667 14.5987 36.1334 13.282 35.3501L10.3987 33.7001C8.88203 32.8334 8.36536 30.8834 9.23203 29.3834C10.7487 26.7667 9.51536 24.6334 6.4987 24.6334C4.7487 24.6334 3.33203 23.2001 3.33203 21.4667Z" stroke="#292D32" stroke-width="2" stroke-miterlimit="10" stroke-linecap="round" stroke-linejoin="round"/>
</svg>
