<svg xmlns="http://www.w3.org/2000/svg" width="34" height="34" viewBox="0 0 34 34" fill="none">
  <path d="M7.49877 7.49841C7.76443 7.23283 8.1247 7.08363 8.50035 7.08363C8.876 7.08363 9.23627 7.23283 9.50193 7.49841L17.0003 14.9968L24.4988 7.49841C24.6294 7.3631 24.7858 7.25518 24.9586 7.18093C25.1314 7.10669 25.3173 7.06761 25.5054 7.06597C25.6936 7.06434 25.8801 7.10018 26.0542 7.17141C26.2283 7.24264 26.3865 7.34784 26.5195 7.48085C26.6525 7.61386 26.7577 7.77204 26.8289 7.94614C26.9002 8.12024 26.936 8.30679 26.9344 8.49489C26.9327 8.683 26.8937 8.86889 26.8194 9.04173C26.7452 9.21457 26.6372 9.37089 26.5019 9.50158L19.0035 17L26.5019 24.4984C26.76 24.7656 26.9028 25.1234 26.8996 25.4949C26.8963 25.8663 26.7473 26.2217 26.4847 26.4843C26.222 26.747 25.8667 26.896 25.4952 26.8992C25.1238 26.9024 24.7659 26.7596 24.4988 26.5016L17.0003 19.0032L9.50193 26.5016C9.23475 26.7596 8.87689 26.9024 8.50545 26.8992C8.134 26.896 7.77868 26.747 7.51602 26.4843C7.25336 26.2217 7.10437 25.8663 7.10114 25.4949C7.09792 25.1234 7.24071 24.7656 7.49877 24.4984L14.9972 17L7.49877 9.50158C7.23318 9.23591 7.08398 8.87564 7.08398 8.49999C7.08398 8.12434 7.23318 7.76407 7.49877 7.49841Z" fill="#191919"/>
</svg>